HIERARCHY
ROOT Hips
{
	OFFSET	0.00	0.00	0.00
	CHANNELS 6 Xposition Yposition Zposition Zrotation Xrotation Yrotation
	JOINT LeftUpLeg
	{
		OFFSET	 0.126116	-0.014019	-0.065224
		CHANNELS 3 Zrotation Xrotation Yrotation
		JOINT LeftLeg
		{
			OFFSET	 0.000000	 0.000000	 0.569914
			CHANNELS 3 Zrotation Xrotation Yrotation
			JOINT LeftFoot
			{
				OFFSET	 0.000000	 0.000000	 0.544423
				CHANNELS 3 Zrotation Xrotation Yrotation
				JOINT LeftToeBase
				{
					OFFSET	 0.000000	 0.000000	 0.207117
					CHANNELS 3 Zrotation Xrotation Yrotation
					End Site
					{
						OFFSET	 0.000000	 0.000000	 0.207117
					}
				}
			}
		}
	}
	JOINT RightUpLeg
	{
		OFFSET	-0.124023	-0.008373	-0.065224
		CHANNELS 3 Zrotation Xrotation Yrotation
		JOINT RightLeg
		{
			OFFSET	 0.000000	 0.000000	 0.570047
			CHANNELS 3 Zrotation Xrotation Yrotation
			JOINT RightFoot
			{
				OFFSET	 0.000000	 0.000000	 0.544354
				CHANNELS 3 Zrotation Xrotation Yrotation
				JOINT RightToeBase
				{
					OFFSET	 0.000000	 0.000000	 0.207540
					CHANNELS 3 Zrotation Xrotation Yrotation
					End Site
					{
						OFFSET	 0.000000	 0.000000	 0.207540
					}
				}
			}
		}
	}
	JOINT Spine
	{
		OFFSET	 0.000184	-0.007763	 0.117403
		CHANNELS 3 Zrotation Xrotation Yrotation
		JOINT Spine1
		{
			OFFSET	 0.000000	 0.000000	 0.137269
			CHANNELS 3 Zrotation Xrotation Yrotation
			JOINT Spine2
			{
				OFFSET	 0.000000	 0.000000	 0.156879
				CHANNELS 3 Zrotation Xrotation Yrotation
				JOINT LeftShoulder
				{
					OFFSET	 0.080501	-0.002496	 0.160144
					CHANNELS 3 Zrotation Xrotation Yrotation
					JOINT LeftArm
					{
						OFFSET	 0.000000	 0.000000	 0.164363
						CHANNELS 3 Zrotation Xrotation Yrotation
						JOINT LeftForeArm
						{
							OFFSET	 0.000000	 0.000000	 0.364576
							CHANNELS 3 Zrotation Xrotation Yrotation
							JOINT LeftHand
							{
								OFFSET	 0.000000	 0.000000	 0.360812
								CHANNELS 3 Zrotation Xrotation Yrotation
								JOINT LeftHandIndex1
								{
									OFFSET	 0.000000	 0.000000	 0.086006
									CHANNELS 3 Zrotation Xrotation Yrotation
									JOINT LeftHandIndex2
									{
										OFFSET	 0.000000	 0.000000	 0.047236
										CHANNELS 3 Zrotation Xrotation Yrotation
										JOINT LeftHandIndex3
										{
											OFFSET	-0.004284	-0.000551	 0.038166
											CHANNELS 3 Zrotation Xrotation Yrotation
											End Site
											{
												OFFSET	-0.004284	-0.000551	 0.038166
											}
										}
									}
								}
							}
						}
					}
				}
				JOINT Neck
				{
					OFFSET	 0.000000	 0.000000	 0.176489
					CHANNELS 3 Zrotation Xrotation Yrotation
					JOINT Head
					{
						OFFSET	 0.000000	-0.001747	 0.077940
						CHANNELS 3 Zrotation Xrotation Yrotation
						End Site
						{
							OFFSET	 0.000000	-0.001747	 0.077940
						}
					}
				}
				JOINT RightShoulder
				{
					OFFSET	-0.080363	 0.000306	 0.159706
					CHANNELS 3 Zrotation Xrotation Yrotation
					JOINT RightArm
					{
						OFFSET	 0.000000	 0.000000	 0.164196
						CHANNELS 3 Zrotation Xrotation Yrotation
						JOINT RightForeArm
						{
							OFFSET	 0.000000	 0.000000	 0.365611
							CHANNELS 3 Zrotation Xrotation Yrotation
							JOINT RightHand
							{
								OFFSET	 0.000000	 0.000000	 0.360648
								CHANNELS 3 Zrotation Xrotation Yrotation
								JOINT RightHandIndex1
								{
									OFFSET	 0.000000	 0.000000	 0.069977
									CHANNELS 3 Zrotation Xrotation Yrotation
									JOINT RightHandIndex2
									{
										OFFSET	 0.000000	 0.000000	 0.052305
										CHANNELS 3 Zrotation Xrotation Yrotation
										JOINT RightHandIndex3
										{
											OFFSET	 0.009002	-0.000782	 0.042196
											CHANNELS 3 Zrotation Xrotation Yrotation
											End Site
											{
												OFFSET	 0.009002	-0.000782	 0.042196
											}
										}
									}
								}
							}
						}
					}
				}
			}
		}
	}
}
MOTION
Frames:    12
Frame Time: 0.03333334
-0.108551	 3.364030	 0.129587	-16.236550	-2.144814	-1.216521	 7.322082	 20.831060	-176.878300	-3.545857	-11.630420	 1.489166	 3.728528	 84.409320	-0.316419	-2.296855	 40.106790	-0.278487	 5.156923	-35.819220	-177.696500	 0.653294	-41.899150	 4.707199	 125.887700	 89.765100	-120.260800	 2.369160	 31.395030	 0.066451	-11.907320	 3.612335	 2.370205	-10.768210	-0.766183	 0.298569	-12.718150	-2.799818	-1.661739	-91.776180	 78.527400	-180.000000	 35.783980	 60.516910	-53.983260	-13.122110	-0.959884	-44.352150	 1.534224	-1.906062	-5.443820	-3.812334	 37.924440	-2.927599	-2.450526	 36.184240	 0.754587	-1.378229	 35.397820	-2.634230	 1.224054	 2.176330	-4.961874	-1.870914	-9.618592	 2.971250	 89.782100	 78.203870	-180.000000	-37.628020	 72.242680	 35.041950	 5.169370	-3.924688	 30.307790	-11.389600	-2.876183	 9.679156	 6.437017	 35.671460	-0.771858	 2.830251	 35.756010	-7.813440	-2.350882	 35.473990	 5.254307
-0.132467	 3.292340	 0.126983	-15.542260	-1.935811	-1.323224	 7.645203	 23.972890	-177.666800	-3.092518	-11.614130	 1.612051	 4.785263	 83.905490	-0.762660	-2.238919	 44.466670	-0.402593	 5.027990	-35.949600	-177.411600	-0.099439	-37.809140	 3.663632	 152.658600	 89.360200	-147.428500	 2.360605	 32.757220	 0.097594	-12.136200	 3.401053	 2.022001	-10.681310	-0.975464	 0.096627	-12.473580	-3.036150	-1.744455	-91.776180	 78.527420	-180.000000	 37.098680	 60.906590	-55.304930	-13.303940	-0.809585	-45.116590	 1.428524	-1.894317	-5.447056	-3.812334	 37.924440	-2.927599	-2.450526	 36.184240	 0.754587	-1.378229	 35.397820	-2.634230	 1.250010	 2.077349	-5.025059	-1.745396	-9.730682	 3.687305	 89.782070	 78.203930	-180.000000	-35.936300	 73.139520	 33.139450	 5.527494	-3.797010	 29.080090	-11.983330	-2.885750	 9.667635	 6.437017	 35.671460	-0.771858	 2.830251	 35.756010	-7.813440	-2.350882	 35.473990	 5.254307
-0.162305	 3.210251	 0.124180	-14.776530	-2.109705	-1.294705	 8.282378	 27.476940	-179.426500	-1.941145	-11.581600	 1.833574	 5.816828	 80.819370	-0.531947	-2.171775	 48.326790	-0.526577	 4.806874	-34.636320	-177.741700	 1.259181	-39.244280	 4.625983	 47.671050	 89.700640	-41.562810	 2.375932	 30.186910	 0.039387	-12.371130	 3.227751	 1.867066	-10.546180	-1.027696	-0.224940	-12.038310	-2.917678	-1.815101	-91.776180	 78.527400	-180.000000	 39.251860	 62.077770	-56.108200	-13.502560	-0.647904	-44.206610	 1.359200	-1.866504	-5.452519	-3.812334	 37.924440	-2.927599	-2.450526	 36.184240	 0.754587	-1.378229	 35.397820	-2.634230	 1.410943	 2.342375	-5.120942	-1.528463	-9.908957	 4.283993	 89.782120	 78.203870	 180.000000	-34.685680	 73.733120	 31.744060	 5.572855	-3.646329	 27.847940	-12.588390	-2.898272	 9.652561	 6.437017	 35.671460	-0.771858	 2.830251	 35.756010	-7.813440	-2.350882	 35.473990	 5.254307
-0.194789	 3.124610	 0.122527	-13.736350	-2.265737	-1.112387	 9.123371	 30.747250	 178.130100	-0.922402	-11.559600	 1.969743	 5.505058	 74.061900	 0.958170	-2.106033	 51.348480	-0.635803	 3.797160	-32.423360	-178.699600	 3.837864	-42.591550	 6.310865	 3.921255	 87.806260	 3.244941	 2.384411	 28.444350	 0.001203	-12.746850	 2.909778	 1.538120	-10.479220	-1.047634	-0.564419	-11.502130	-2.659530	-1.973604	-91.776180	 78.527400	-180.000000	 41.668580	 63.855960	-55.874090	-13.457510	-0.651823	-41.686470	 1.626485	-1.878041	-5.451796	-3.812334	 37.924440	-2.927599	-2.450526	 36.184240	 0.754587	-1.378229	 35.397820	-2.634230	 1.598884	 2.898609	-5.083150	-1.312565	-9.974526	 4.547258	 89.782120	 78.203870	 180.000000	-32.577420	 74.111470	 29.055050	 5.718981	-3.472217	 27.085010	-12.890280	-2.901187	 9.644307	 6.437017	 35.671460	-0.771858	 2.830251	 35.756010	-7.813440	-2.350882	 35.473990	 5.254307
-0.227420	 3.045016	 0.126965	-12.382650	-2.601772	-1.190650	 7.589055	 27.250600	 176.828800	-1.003733	-23.099960	 1.749346	 3.703782	 66.786210	 0.184640	-2.142298	 49.756260	-0.576728	 2.184932	-30.149840	-179.238800	 5.128206	-46.175180	 6.813593	 3.540066	 84.385700	 3.059461	 2.395791	 25.416580	-0.063094	-12.942140	 2.508656	 1.372807	-10.343910	-0.918941	-0.718733	-11.207010	-2.418167	-2.036161	-91.776180	 78.527400	-180.000000	 44.012610	 66.050190	-55.807070	-13.365070	-0.898933	-37.472760	 2.515054	-1.859499	-5.454822	-3.812334	 37.924440	-2.927599	-2.450526	 36.184240	 0.754587	-1.378229	 35.397820	-2.634230	 1.689478	 3.047980	-4.874264	-1.157818	-9.614819	 4.439372	 89.782120	 78.203870	 180.000000	-32.131970	 74.116940	 28.604890	 5.931032	-3.256566	 26.755810	-12.794000	-2.901742	 9.640632	 6.437017	 35.671460	-0.771858	 2.830251	 35.756010	-7.813440	-2.350882	 35.473990	 5.254307
-0.263135	 2.967724	 0.135654	-11.155160	-2.927540	-0.640967	 7.750446	 15.831010	 173.532800	-1.667515	-46.381080	 0.770704	 1.690565	 57.790020	 0.667745	-2.306983	 39.193350	-0.254217	 1.084308	-26.583590	 179.330900	 6.057477	-47.994880	 7.055918	 3.346872	 84.433410	 3.027137	 2.406716	 19.789980	-0.177269	-12.996280	 2.764256	 0.904878	-10.003570	-0.896106	-0.921843	-10.567960	-2.254405	-2.036399	-91.776180	 78.527420	-180.000000	 44.112270	 68.781370	-53.798020	-13.839760	-1.133725	-32.348660	 3.779506	-1.909612	-5.442288	-3.812334	 37.924440	-2.927599	-2.450526	 36.184240	 0.754587	-1.378229	 35.397820	-2.634230	 1.582691	 2.895250	-4.686967	-1.177611	-8.967113	 3.910797	 89.782120	 78.203870	 180.000000	-33.530570	 73.368630	 30.852500	 5.529745	-3.079331	 26.503400	-12.786010	-2.893792	 9.641018	 6.437017	 35.671460	-0.771858	 2.830251	 35.756010	-7.813440	-2.350882	 35.473990	 5.254307
-0.291854	 2.904083	 0.142884	-9.718343	-3.171482	 1.927569	 6.736900	 6.835113	 169.847500	-4.361786	-61.933190	-3.631961	-0.732609	 55.433610	 0.862606	-2.362695	 32.681160	-0.094290	 0.299319	-21.478540	 175.960800	 7.199358	-46.341900	 6.950062	 2.010833	 85.874400	 4.780479	 2.407687	 17.473440	-0.222822	-13.413040	 3.666230	-1.738220	-9.766693	-0.973909	-1.471043	-10.068310	-2.998012	-2.154544	-91.776180	 78.527400	-180.000000	 42.334680	 70.838490	-50.825490	-15.313260	-0.924112	-28.804260	 3.944824	-1.973817	-5.426369	-3.812334	 37.924440	-2.927599	-2.450526	 36.184240	 0.754587	-1.378229	 35.397820	-2.634230	 1.351535	 2.934180	-4.532566	-1.301287	-9.024618	 3.242324	 89.782120	 78.203870	 180.000000	-36.065900	 72.151930	 35.205470	 5.028374	-2.964452	 26.572430	-12.700370	-2.884074	 9.643594	 6.437017	 35.671460	-0.771858	 2.830251	 35.756010	-7.813440	-2.350882	 35.473990	 5.254307
-0.319728	 2.837198	 0.148845	-8.519654	-3.149135	 2.764768	 3.820994	-3.059150	 170.082600	-6.473567	-73.043170	-8.202109	-1.144383	 62.723390	 0.280623	-2.334126	 36.410020	-0.183264	 0.367593	-17.241960	 174.437300	 7.585108	-44.988100	 6.858356	-1.829631	 88.503150	 9.004209	 2.407676	 17.768110	-0.217059	-13.208400	 3.648478	-2.544842	-9.305046	-1.045344	-1.488514	-9.985653	-3.482174	-1.974456	-91.776180	 78.527400	-180.000000	 39.581410	 72.050610	-47.127430	-16.507260	-0.691762	-26.500980	 3.866792	-2.024969	-5.414864	-3.812334	 37.924440	-2.927599	-2.450526	 36.184240	 0.754587	-1.378229	 35.397820	-2.634230	 1.026419	 2.983087	-4.320054	-1.432114	-9.390026	 2.422600	 89.782120	 78.203930	 180.000000	-38.291950	 70.409540	 40.564440	 4.688606	-2.948902	 27.184630	-12.626530	-2.867812	 9.649248	 6.437017	 35.671460	-0.771858	 2.830251	 35.756010	-7.813440	-2.350882	 35.473990	 5.254307
-0.342080	 2.779317	 0.151128	-8.424005	-3.118113	 3.382103	 1.750799	-10.421780	 170.896800	-6.577332	-76.213960	-9.667559	-1.142761	 70.835040	-0.083074	-2.297600	 40.041680	-0.276750	 0.721510	-13.928650	 173.344500	 7.443047	-44.482140	 6.700912	-166.216500	 89.294180	 173.449500	 2.407223	 19.076070	-0.191382	-12.438630	 3.920028	-3.184328	-8.420007	-1.081053	-1.302997	-9.703856	-3.803089	-1.546523	-91.776180	 78.527400	 180.000000	 37.863610	 72.346080	-43.625990	-16.230200	-0.660035	-26.729150	 3.958635	-2.012661	-5.417228	-3.812334	 37.924440	-2.927599	-2.450526	 36.184240	 0.754587	-1.378229	 35.397820	-2.634230	 0.621677	 2.991586	-3.987327	-1.640789	-9.182590	 1.333731	 89.782120	 78.203870	 180.000000	-39.017790	 68.564360	 43.972770	 4.675113	-2.976872	 28.625640	-12.170340	-2.834219	 9.669226	 6.437017	 35.671460	-0.771858	 2.830251	 35.756010	-7.813440	-2.350882	 35.473990	 5.254307
-0.363730	 2.714887	 0.148502	-8.427479	-2.761541	 4.796420	 0.391360	-16.941970	 171.441200	-10.807750	-74.339780	-14.264650	-2.732436	 79.767440	-0.638721	-2.283676	 41.216370	-0.308728	 0.644980	-10.529930	 171.707200	 7.112463	-44.366430	 6.059622	-173.619300	 87.107680	-179.655900	 2.405723	 20.751830	-0.158140	-11.640700	 3.976552	-4.908081	-7.315356	-1.250786	-1.305175	-9.347887	-4.465453	-1.057698	-91.776180	 78.527400	-180.000000	 37.033480	 72.495030	-40.187120	-16.159210	-0.444491	-28.844660	 3.187900	-1.958955	-5.435704	-3.812334	 37.924440	-2.927599	-2.450526	 36.184240	 0.754587	-1.378229	 35.397820	-2.634230	 0.215498	 3.026089	-3.683731	-1.779131	-8.795907	 0.733595	 89.782110	 78.203870	 180.000000	-39.068720	 66.196820	 46.348270	 4.926480	-3.002684	 31.850490	-10.971200	-2.771349	 9.706915	 6.437017	 35.671460	-0.771858	 2.830251	 35.756010	-7.813440	-2.350882	 35.473990	 5.254307
-0.382999	 2.655666	 0.141119	-8.672236	-2.412614	 5.625522	-0.497981	-22.592640	 172.137000	-12.036260	-68.171040	-15.066840	-4.111816	 84.870650	-1.604156	-2.275142	 41.892560	-0.327576	 0.633019	-7.786864	 170.719100	 6.778059	-44.234350	 5.522381	-174.552100	 84.894470	-179.114000	 2.404416	 21.692960	-0.139286	-10.878670	 3.992386	-5.810404	-6.225834	-1.671665	-1.325186	-8.523415	-4.917099	-0.671441	-91.776180	 78.527400	-180.000000	 34.786250	 73.070220	-35.588130	-16.833070	-0.163448	-31.379320	 2.330333	-1.906391	-5.451602	-3.812334	 37.924440	-2.927599	-2.450526	 36.184240	 0.754587	-1.378229	 35.397820	-2.634230	-0.004635	 3.033039	-3.552784	-1.777166	-8.662468	 0.706281	 89.782120	 78.203870	 180.000000	-38.150220	 64.082360	 47.141600	 5.438162	-2.969577	 35.913010	-9.647264	-2.711209	 9.738261	 6.437017	 35.671460	-0.771858	 2.830251	 35.756010	-7.813440	-2.350882	 35.473990	 5.254307
-0.401912	 2.593309	 0.135317	-8.487060	-1.922509	 6.286591	-0.439094	-26.077970	 172.729800	-9.954906	-58.367880	-11.557630	-5.225675	 86.907880	-1.788229	-2.284347	 41.160760	-0.307204	 0.908068	-3.811632	 169.829600	 6.434119	-41.867640	 4.820174	-175.405300	 83.500190	-178.425100	 2.403183	 22.416870	-0.124692	-10.403550	 3.746009	-6.566520	-5.313581	-2.141912	-1.324593	-7.722520	-5.588192	-0.442724	-91.776180	 78.527400	 180.000000	 31.817560	 73.700940	-30.882530	-17.515470	 0.017247	-33.365010	 1.912411	-1.873000	-5.459960	-3.812334	 37.924440	-2.927599	-2.450526	 36.184240	 0.754587	-1.378229	 35.397820	-2.634230	 0.024940	 3.206808	-3.555760	-1.585887	-9.321011	 0.853938	 89.782120	 78.203870	 180.000000	-37.034540	 62.224750	 47.955990	 6.086682	-2.895590	 40.306910	-8.511487	-2.690492	 9.747667	 6.437017	 35.671460	-0.771858	 2.830251	 35.756010	-7.813440	-2.350882	 35.473990	 5.254307
